<svg xmlns="http://www.w3.org/2000/svg" xmlns:xlink="http://www.w3.org/1999/xlink" viewBox="0 0 31 39">
    <defs>
        <polygon id="path-1" points="30.3068515 0.0337739872 0.000121505013 0.0337739872 0.000121505013 38.4322527 30.3068515 38.4322527 30.3068515 0.0337739872"></polygon>
    </defs>
    <g id="logo-mark" stroke="none" stroke-width="1" fill="none" fill-rule="evenodd">
        <path d="M21.7782035,30.0901769 C21.7724475,28.9063404 21.6463919,21.6717194 19.2116196,21.5476874 C18.9537525,21.5354589 15.3603049,21.5342942 14.8405414,21.5342942 C14.500364,21.5342942 11.5107169,21.5342942 11.2914148,21.5406997 C8.87275916,21.62397 9.05119401,29.5078668 9.05119401,29.5078668 C9.05119401,29.5078668 8.81807752,29.4944736 8.62467717,29.5078668 C8.58380983,29.3168691 7.45103634,24.8651082 7.10970775,20.8675492 C6.83975309,17.7003644 7.26742113,14.222226 7.65364623,11.5861081 C7.71005467,11.5872727 7.9529563,11.5948427 8.01799868,11.597172 C8.19988711,14.5529782 9.28258372,18.7467757 10.2921796,18.890024 C10.7900704,18.9581543 11.2580302,19.0035744 11.687425,19.0216261 C11.9119075,19.0321076 14.2989053,19.0321076 14.7858598,19.0321076 C15.1047401,19.0321076 19.1454261,19.030943 19.434951,19.0117268 C21.2572888,18.8964294 21.7166147,11.9215187 21.7166147,11.9215187 C21.7166147,11.9215187 21.907137,11.9226833 22.0999618,11.9203541 C22.4412904,13.5013261 23.183234,17.0225554 23.2586371,20.602598 C23.3397962,24.5186336 22.5541072,28.4434039 22.1770917,30.0901769 L21.7782035,30.0901769 Z" id="Fill-1" fill="#000000"></path>
        <g id="Group-5" transform="translate(0.000000, 0.548769)">
            <mask id="mask-2" fill="white">
                <use xlink:href="#path-1"></use>
            </mask>
            <g id="Clip-4"></g>
            <path d="M20.3178581,34.4159841 C18.8333953,35.9899684 15.8673477,37.0806352 13.1482308,35.8909757 C9.74472998,34.4037556 7.95577672,30.3147739 6.99510653,26.1110771 C6.85005626,25.4763591 6.72400068,24.8410587 6.61348619,24.2098346 C5.94924808,20.4050202 5.84794313,16.1337755 6.45231923,12.3574943 C6.9835946,9.03192118 8.06283763,6.09067274 9.78502172,4.18593633 C10.6046708,3.28044408 11.8416272,2.34467172 13.5914399,2.13212852 C17.1860387,1.69539593 19.3825142,3.68107345 20.7610673,5.85425483 C21.8167108,7.51733255 22.6628374,9.80173517 23.2499456,12.3790398 C24.2215521,16.6438791 24.4748145,21.7146357 23.772587,26.1110771 C23.2309509,29.5082744 22.1165965,32.5065892 20.3178581,34.4159841 M26.6609292,5.27776781 C24.2664486,2.00227336 20.0910732,-0.322308654 14.7345742,0.0783207117 C12.1323034,0.273394603 10.0549764,1.16083523 8.32703633,2.32429086 C3.36021599,5.66558635 0.261205594,11.821769 0.0160015767,19.717312 C-0.164735657,25.5200324 1.2057591,29.9589824 3.69521303,33.1966267 C6.15300916,36.392927 10.210963,38.7687523 15.624446,38.3931623 C20.1952561,38.0781325 23.8197859,35.2189898 26.1538289,31.8479965 C28.5350707,28.4100375 30.0195335,24.3198912 30.2774006,18.8188074 C30.5352678,13.3229645 29.080736,8.58645394 26.6609292,5.27776781" id="Fill-3" fill="#000000" mask="url(#mask-2)"></path>
        </g>
    </g>
</svg>